<?xml version="1.0" standalone="no"?>
<!DOCTYPE svg PUBLIC "-//W3C//DTD SVG 1.1//EN" "http://www.w3.org/Graphics/SVG/1.1/DTD/svg11.dtd" >
<svg>
<metadata>
Created by FontForge 20120731 at Sat Jun 29 14:31:24 2019
 By www
Copyright (c) 1990 Adobe Systems Incorporated.  All Rights Reserved.Helvetica is a trademark of Linotype AG and/or its subsidiaries.
</metadata>
<defs>
<font id="HelveticaNeue-BoldCond" horiz-adv-x="480" >
  <font-face 
    font-family="Helvetica Neue"
    font-weight="700"
    font-stretch="condensed"
    units-per-em="1000"
    panose-1="2 11 8 6 0 0 0 0 0 0"
    ascent="776"
    descent="-224"
    x-height="538"
    cap-height="714"
    bbox="-164 -224 1066 961"
    underline-thickness="50"
    underline-position="-50"
    stemh="106"
    stemv="138"
    unicode-range="U+0020-FB02"
  />
<missing-glyph horiz-adv-x="240" 
 />
    <glyph glyph-name=".notdef" horiz-adv-x="240" 
 />
    <glyph glyph-name="space" unicode=" " horiz-adv-x="240" 
 />
    <glyph glyph-name="space" unicode="&#xa0;" horiz-adv-x="240" 
 />
    <glyph glyph-name="exclam" unicode="!" horiz-adv-x="296" 
d="M198 199h-100l-19 283v232h138v-232zM79 132h138v-132h-138v132z" />
    <glyph glyph-name="quotedbl" unicode="&#x22;" horiz-adv-x="463" 
d="M267 393v321h124v-321h-124zM72 393v321h124v-321h-124z" />
    <glyph glyph-name="numbersign" unicode="#" 
d="M0 174v112h87l16 122h-73v112h86l22 174h96l-21 -174h97l22 174h97l-22 -174h73v-112h-86l-16 -122h73v-112h-86l-22 -174h-97l22 174h-98l-21 -174h-97l22 174h-74zM199 408l-15 -122h97l16 122h-98z" />
    <glyph glyph-name="dollar" unicode="$" 
d="M269 269v-177c41 9 58 43 58 80c0 50 -20 77 -58 97zM205 442v160c-30 -9 -49 -34 -49 -76c0 -36 15 -64 49 -84zM205 -101v87c-166 13 -196 102 -196 205v21h138c0 -55 5 -107 58 -120v202l-50 18c-97 35 -137 102 -137 192c0 122 69 191 187 204v69h64v-69
c147 -12 185 -100 185 -189v-14h-138c-1 51 -13 86 -47 97v-189l79 -32c74 -31 123 -70 123 -181c0 -144 -70 -205 -202 -214v-87h-64z" />
    <glyph glyph-name="percent" unicode="%" horiz-adv-x="778" 
d="M557 181c0 -79 4 -119 44 -119s44 40 44 119c0 71 -4 111 -44 111s-44 -40 -44 -111zM451 177c0 129 26 191 150 191s150 -62 150 -191s-26 -191 -150 -191s-150 62 -150 191zM27 517c0 129 26 191 150 191s150 -62 150 -191s-26 -191 -150 -191s-150 62 -150 191z
M133 521c0 -79 4 -119 44 -119s44 40 44 119c0 71 -4 111 -44 111s-44 -40 -44 -111zM140 -31l406 756h89l-406 -756h-89z" />
    <glyph glyph-name="ampersand" unicode="&#x26;" horiz-adv-x="593" 
d="M201 568c0 -19 12 -46 36 -78l17 -24l26 22c32 26 45 53 45 78c0 39 -26 60 -63 60c-34 0 -61 -21 -61 -58zM343 143l-120 170c-54 -42 -73 -77 -73 -121c0 -45 35 -94 100 -94c39 0 69 15 93 45zM319 380l107 -145c15 31 25 79 25 108h124c0 -77 -30 -150 -73 -211
l94 -132h-153l-40 55c-36 -43 -102 -69 -172 -69c-181 0 -219 126 -219 206c0 83 55 151 144 206l-25 37c-40 59 -48 88 -48 129c0 93 75 150 182 150c122 0 178 -66 178 -149c0 -71 -40 -126 -124 -185z" />
    <glyph glyph-name="quoteright" unicode="&#x2019;" horiz-adv-x="260" 
d="M196 714v-130c0 -106 -25 -181 -132 -191v70c35 6 52 42 52 79v16h-52v156h132z" />
    <glyph glyph-name="parenleft" unicode="(" horiz-adv-x="296" 
d="M190 714h106c-83 -151 -114 -280 -114 -449s31 -298 114 -449h-106c-98 156 -140 309 -140 449s42 293 140 449z" />
    <glyph glyph-name="parenright" unicode=")" horiz-adv-x="296" 
d="M0 714h106c98 -156 140 -309 140 -449s-42 -293 -140 -449h-106c83 151 114 280 114 449s-31 298 -114 449z" />
    <glyph glyph-name="asterisk" unicode="*" horiz-adv-x="390" 
d="M154 714h82v-128l122 40l25 -78l-122 -40l76 -104l-67 -48l-75 104l-75 -104l-67 48l76 104l-122 40l25 78l122 -40v128z" />
    <glyph glyph-name="plus" unicode="+" horiz-adv-x="600" 
d="M238 0v191h-191v124h191v191h124v-191h191v-124h-191v-191h-124z" />
    <glyph glyph-name="comma" unicode="," horiz-adv-x="240" 
d="M54 156h132v-130c0 -106 -25 -181 -132 -191v70c35 6 52 42 52 79v16h-52v156z" />
    <glyph glyph-name="hyphen" unicode="-" horiz-adv-x="370" 
d="M44 348h282v-118h-282v118z" />
    <glyph glyph-name="hyphen" unicode="&#xad;" horiz-adv-x="370" 
d="M44 348h282v-118h-282v118z" />
    <glyph glyph-name="period" unicode="." horiz-adv-x="240" 
d="M54 156h132v-156h-132v156z" />
    <glyph glyph-name="slash" unicode="/" horiz-adv-x="332" 
d="M-3 -14l226 742h112l-226 -742h-112z" />
    <glyph glyph-name="zero" unicode="0" 
d="M162 376v-77c0 -178 16 -219 78 -219c63 0 78 56 78 238v77c0 178 -16 219 -78 219c-63 0 -78 -56 -78 -238zM18 330c0 196 11 378 222 378c171 0 222 -93 222 -344c0 -197 -11 -378 -222 -378c-171 0 -222 93 -222 344z" />
    <glyph glyph-name="one" unicode="1" 
d="M326 0h-144v500h-141v94h13c94 0 152 36 166 114h106v-708z" />
    <glyph glyph-name="two" unicode="2" 
d="M454 112v-112h-436c0 126 51 213 156 310l58 54c63 57 74 89 74 162c0 59 -25 88 -70 88c-72 0 -79 -63 -80 -138h-138v27c0 131 69 205 220 205c142 0 212 -71 212 -193c0 -92 -29 -152 -110 -225l-80 -74c-42 -38 -66 -77 -73 -104h267z" />
    <glyph glyph-name="three" unicode="3" 
d="M20 207h138c2 -82 16 -127 79 -127c70 0 79 52 79 114c0 63 -14 121 -93 121h-48v94h47c60 0 82 54 82 112c0 66 -22 93 -69 93c-62 0 -73 -48 -73 -115h-132c0 139 74 209 208 209c128 0 204 -57 204 -182c0 -85 -41 -141 -108 -156v-2c91 -14 126 -78 126 -167
c0 -95 -39 -215 -235 -215c-137 0 -205 83 -205 218v3z" />
    <glyph glyph-name="four" unicode="4" 
d="M266 259v269h-2l-138 -269h140zM14 147v118l235 443h149v-449h68v-112h-68v-147h-132v147h-252z" />
    <glyph glyph-name="five" unicode="5" 
d="M425 694v-112h-261l-15 -161h2c27 37 69 53 130 53c136 0 173 -114 173 -226c0 -155 -45 -262 -227 -262c-180 0 -209 118 -209 197v19h138c0 -47 8 -116 70 -116c58 0 84 46 84 138c0 117 -18 150 -83 150c-41 0 -63 -25 -68 -65h-129l26 385h369z" />
    <glyph glyph-name="six" unicode="6" 
d="M449 528h-138c0 54 -17 86 -65 86c-76 0 -88 -76 -88 -180v-35h2c24 37 71 61 133 61c126 0 173 -94 173 -221c0 -162 -71 -253 -229 -253c-198 0 -223 158 -223 331c0 200 4 391 238 391c102 0 195 -43 197 -180zM165 220c1 -81 12 -140 79 -140c70 0 78 60 78 140
c0 96 -22 134 -78 134c-57 0 -79 -38 -79 -134z" />
    <glyph glyph-name="seven" unicode="7" 
d="M22 694h436v-110c-117 -165 -185 -384 -208 -584h-151c22 171 82 382 221 570h-298v124z" />
    <glyph glyph-name="eight" unicode="8" 
d="M14 200c0 89 40 159 120 175v2c-76 20 -102 85 -102 136c0 139 79 195 208 195s208 -56 208 -195c0 -51 -26 -116 -102 -136v-2c80 -16 120 -86 120 -175c0 -81 -29 -214 -226 -214s-226 133 -226 214zM170 517c0 -66 28 -99 70 -99s70 33 70 99c0 64 -23 97 -70 97
s-70 -33 -70 -97zM158 202c0 -67 17 -122 82 -122s82 55 82 122c0 68 -17 122 -82 122s-82 -54 -82 -122z" />
    <glyph glyph-name="nine" unicode="9" 
d="M31 165h138c0 -53 17 -85 65 -85c76 0 88 76 88 180v34h-2c-24 -36 -71 -60 -133 -60c-126 0 -173 94 -173 221c0 162 71 253 229 253c198 0 223 -158 223 -331c0 -201 -4 -391 -238 -391c-102 0 -195 43 -197 179zM158 474c0 -96 22 -134 78 -134c57 0 79 38 79 134
c-1 81 -12 140 -79 140c-70 0 -78 -60 -78 -140z" />
    <glyph glyph-name="colon" unicode=":" horiz-adv-x="240" 
d="M54 0v156h132v-156h-132zM54 365v156h132v-156h-132z" />
    <glyph glyph-name="semicolon" unicode=";" horiz-adv-x="240" 
d="M54 156h132v-130c0 -106 -25 -181 -132 -191v70c35 6 52 42 52 79v16h-52v156zM54 521h132v-156h-132v156z" />
    <glyph glyph-name="less" unicode="&#x3c;" horiz-adv-x="600" 
d="M47 200v106l506 208v-124l-338 -137l338 -137v-124z" />
    <glyph glyph-name="equal" unicode="=" horiz-adv-x="600" 
d="M47 300v124h506v-124h-506zM47 82v124h506v-124h-506z" />
    <glyph glyph-name="greater" unicode="&#x3e;" horiz-adv-x="600" 
d="M47 -8v124l338 137l-338 137v124l506 -208v-106z" />
    <glyph glyph-name="question" unicode="?" horiz-adv-x="481" 
d="M168 493h-132v23c0 120 66 206 198 206c140 0 211 -76 211 -193c0 -54 -15 -102 -63 -156l-40 -45c-35 -39 -49 -64 -49 -115v-15h-124v39c0 67 17 106 62 157l38 43c28 31 38 66 38 106c0 51 -23 85 -68 85c-51 0 -71 -45 -71 -110v-25zM162 132h138v-132h-138v132z" />
    <glyph glyph-name="at" unicode="@" horiz-adv-x="800" 
d="M299 326c0 -44 28 -81 71 -81c68 0 116 69 116 128c0 42 -34 76 -75 76c-64 0 -112 -68 -112 -123zM522 488l13 53h88l-58 -250c-4 -18 -6 -34 -6 -41c0 -14 7 -20 20 -20c39 0 104 69 104 174c0 133 -127 230 -266 230c-157 0 -276 -134 -276 -278
c0 -152 131 -276 283 -276c91 0 163 31 217 64h89c-70 -100 -180 -158 -330 -158c-205 0 -371 166 -371 371s166 371 371 371c200 0 371 -120 371 -303c0 -211 -186 -286 -251 -286c-38 0 -62 18 -65 53h-2c-26 -28 -67 -53 -120 -53c-71 0 -146 64 -146 170
c0 122 83 246 214 246c50 0 92 -20 121 -67z" />
    <glyph glyph-name="A" unicode="A" horiz-adv-x="556" 
d="M0 0l189 714h178l189 -714h-150l-33 151h-190l-33 -151h-150zM277 590l-69 -321h140l-69 321h-2z" />
    <glyph glyph-name="B" unicode="B" horiz-adv-x="556" 
d="M50 0v714h241c118 0 203 -44 203 -181c0 -77 -37 -136 -108 -156v-2c79 -11 130 -71 130 -166c0 -112 -55 -209 -223 -209h-243zM194 608v-187h41c79 0 115 27 115 94c0 68 -33 93 -104 93h-52zM194 321v-215h56c69 0 116 25 116 108s-47 107 -110 107h-62z" />
    <glyph glyph-name="C" unicode="C" horiz-adv-x="537" 
d="M499 473h-144c0 104 -21 149 -86 149c-73 0 -90 -73 -90 -275c0 -216 30 -255 92 -255c52 0 90 27 90 181h144c0 -154 -38 -287 -227 -287c-216 0 -243 154 -243 371s27 371 243 371c206 0 221 -151 221 -255z" />
    <glyph glyph-name="D" unicode="D" horiz-adv-x="574" 
d="M57 0v714h236c200 0 236 -137 236 -347c0 -253 -54 -367 -245 -367h-227zM201 608v-502h64c100 0 120 63 120 257c0 162 -13 245 -123 245h-61z" />
    <glyph glyph-name="E" unicode="E" horiz-adv-x="481" 
d="M50 714h399v-118h-255v-168h240v-118h-240v-192h265v-118h-409v714z" />
    <glyph glyph-name="F" unicode="F" horiz-adv-x="463" 
d="M50 0v714h399v-118h-255v-168h240v-118h-240v-310h-144z" />
    <glyph glyph-name="G" unicode="G" horiz-adv-x="556" 
d="M505 502h-138c0 53 -24 120 -82 120c-70 0 -98 -72 -98 -250c0 -172 16 -280 99 -280c34 0 89 37 89 114v73h-95v106h233v-385h-106v66h-2c-34 -56 -83 -80 -150 -80c-177 0 -212 132 -212 379c0 240 56 363 240 363c158 0 222 -81 222 -226z" />
    <glyph glyph-name="H" unicode="H" horiz-adv-x="556" 
d="M50 0v714h144v-273h168v273h144v-714h-144v317h-168v-317h-144z" />
    <glyph glyph-name="I" unicode="I" horiz-adv-x="258" 
d="M201 0h-144v714h144v-714z" />
    <glyph glyph-name="J" unicode="J" horiz-adv-x="463" 
d="M275 714h144v-514c0 -152 -69 -214 -215 -214c-152 0 -189 97 -189 209v31h132v-22c0 -76 12 -112 64 -112s64 36 64 112v510z" />
    <glyph glyph-name="K" unicode="K" horiz-adv-x="537" 
d="M50 714h144v-286h2l182 286h156l-194 -306l216 -408h-162l-147 293l-53 -81v-212h-144v714z" />
    <glyph glyph-name="L" unicode="L" horiz-adv-x="463" 
d="M449 0h-399v714h144v-596h255v-118z" />
    <glyph glyph-name="M" unicode="M" horiz-adv-x="740" 
d="M53 0v714h214l102 -504h2l103 504h213v-714h-132v570h-2l-127 -570h-112l-127 570h-2v-570h-132z" />
    <glyph glyph-name="N" unicode="N" horiz-adv-x="574" 
d="M50 714h166l174 -489h2v489h132v-714h-164l-176 500h-2v-500h-132v714z" />
    <glyph glyph-name="O" unicode="O" horiz-adv-x="556" 
d="M35 357c0 217 27 371 243 371s243 -154 243 -371s-27 -371 -243 -371s-243 154 -243 371zM179 357c0 -192 14 -265 99 -265s99 73 99 265c0 191 -14 265 -99 265s-99 -74 -99 -265z" />
    <glyph glyph-name="P" unicode="P" horiz-adv-x="519" 
d="M50 0v714h252c146 0 196 -107 196 -214c0 -148 -91 -215 -227 -215h-77v-285h-144zM194 608v-217h64c57 0 96 34 96 107c0 70 -28 110 -100 110h-60z" />
    <glyph glyph-name="Q" unicode="Q" horiz-adv-x="556" 
d="M543 -11l-85 -77l-85 88c-13 -5 -28 -9 -44 -11c-15 -2 -32 -3 -51 -3c-216 0 -243 154 -243 371s27 371 243 371s243 -154 243 -371c0 -121 -8 -222 -55 -290zM179 357c0 -192 14 -265 99 -265s99 73 99 265c0 191 -14 265 -99 265s-99 -74 -99 -265z" />
    <glyph glyph-name="R" unicode="R" horiz-adv-x="556" 
d="M194 608v-206h60c69 0 108 30 108 107c0 66 -35 99 -100 99h-68zM50 0v714h266c118 0 190 -62 190 -184c0 -95 -38 -159 -119 -176v-2c98 -13 113 -67 115 -218c1 -75 5 -114 32 -128v-6h-156c-14 20 -17 47 -18 75l-4 137c-2 56 -27 90 -85 90h-77v-302h-144z" />
    <glyph glyph-name="S" unicode="S" horiz-adv-x="519" 
d="M22 223h144v-21c0 -67 19 -110 95 -110c44 0 86 28 86 88c0 65 -33 89 -128 122c-128 44 -187 97 -187 216c0 139 85 210 221 210c128 0 221 -55 221 -192v-20h-138c0 67 -23 106 -78 106c-65 0 -82 -41 -82 -83c0 -44 13 -71 74 -97l111 -48c108 -47 136 -102 136 -189
c0 -151 -92 -219 -248 -219c-163 0 -227 76 -227 208v29z" />
    <glyph glyph-name="T" unicode="T" 
d="M12 714h456v-118h-156v-596h-144v596h-156v118z" />
    <glyph glyph-name="U" unicode="U" horiz-adv-x="538" 
d="M41 714h144v-498c0 -71 17 -124 84 -124s84 53 84 124v498h144v-498c0 -182 -111 -230 -228 -230s-228 39 -228 230v498z" />
    <glyph glyph-name="V" unicode="V" horiz-adv-x="519" 
d="M3 714h154l101 -528h3l106 528h149l-164 -714h-185z" />
    <glyph glyph-name="W" unicode="W" horiz-adv-x="760" 
d="M138 0l-130 714h138l79 -528h2l84 528h138l84 -528h2l79 528h138l-130 -714h-161l-80 518h-2l-80 -518h-161z" />
    <glyph glyph-name="X" unicode="X" horiz-adv-x="537" 
d="M184 361l-164 353h159l92 -231l91 231h157l-166 -353l178 -361h-162l-103 242l-102 -242h-158z" />
    <glyph glyph-name="Y" unicode="Y" horiz-adv-x="520" 
d="M3 714h162l94 -276h2l100 276h156l-185 -433v-281h-144v281z" />
    <glyph glyph-name="Z" unicode="Z" horiz-adv-x="481" 
d="M24 0v105l263 491h-245v118h411v-109l-267 -487h271v-118h-433z" />
    <glyph glyph-name="bracketleft" unicode="[" horiz-adv-x="315" 
d="M80 -184v898h229v-100h-105v-698h105v-100h-229z" />
    <glyph glyph-name="backslash" unicode="\" horiz-adv-x="332" 
d="M223 -14l-226 742h112l226 -742h-112z" />
    <glyph glyph-name="bracketright" unicode="]" horiz-adv-x="315" 
d="M6 -184v100h105v698h-105v100h229v-898h-229z" />
    <glyph glyph-name="asciicircum" unicode="^" horiz-adv-x="600" 
d="M180 309h-124l188 385h112l188 -385h-124l-120 247z" />
    <glyph glyph-name="underscore" unicode="_" horiz-adv-x="500" 
d="M500 -125h-500v50h500v-50z" />
    <glyph glyph-name="quoteleft" unicode="&#x2018;" horiz-adv-x="260" 
d="M64 393v130c0 106 25 181 132 191v-70c-35 -6 -52 -42 -52 -79v-16h52v-156h-132z" />
    <glyph glyph-name="a" unicode="a" horiz-adv-x="481" 
d="M169 373h-124v13c0 124 85 166 189 166c164 0 195 -68 195 -165v-283c0 -50 3 -73 17 -104h-132c-9 17 -13 38 -17 56h-2c-32 -56 -71 -70 -137 -70c-96 0 -130 82 -130 154c0 101 41 142 136 168l78 21c41 11 55 27 55 63c0 41 -18 66 -64 66c-42 0 -64 -28 -64 -70v-15
zM297 163v106c-19 -14 -42 -23 -59 -27c-56 -12 -78 -39 -78 -87c0 -41 15 -75 52 -75s85 24 85 83z" />
    <glyph glyph-name="b" unicode="b" horiz-adv-x="500" 
d="M184 269c0 -117 12 -177 73 -177c60 0 72 60 72 177s-12 177 -72 177c-61 0 -73 -60 -73 -177zM46 0v714h138v-226h2c29 43 64 64 116 64c113 0 165 -83 165 -283s-52 -283 -165 -283c-54 0 -92 21 -122 71h-2v-57h-132z" />
    <glyph glyph-name="c" unicode="c" horiz-adv-x="463" 
d="M437 344h-132c0 52 -10 108 -62 108c-68 0 -79 -60 -79 -184c0 -133 12 -188 74 -188c46 0 67 39 67 126h132c0 -141 -59 -220 -205 -220c-138 0 -206 67 -206 283c0 221 91 283 218 283s193 -81 193 -208z" />
    <glyph glyph-name="d" unicode="d" horiz-adv-x="500" 
d="M171 269c0 -117 12 -177 72 -177c61 0 73 60 73 177s-12 177 -73 177c-60 0 -72 -60 -72 -177zM322 0v57h-2c-30 -50 -68 -71 -122 -71c-113 0 -165 83 -165 283s52 283 165 283c52 0 87 -21 116 -64h2v226h138v-714h-132z" />
    <glyph glyph-name="e" unicode="e" horiz-adv-x="463" 
d="M437 248h-273v-43c0 -63 17 -125 68 -125c46 0 65 35 73 101h124c-5 -125 -65 -195 -195 -195c-200 0 -208 154 -208 288c0 144 28 278 214 278c161 0 197 -108 197 -273v-31zM164 330h141c-3 82 -13 128 -70 128c-55 0 -71 -57 -71 -107v-21z" />
    <glyph glyph-name="f" unicode="f" horiz-adv-x="296" 
d="M76 0v444h-70v94h70v61c0 97 55 129 144 129c25 0 49 -1 74 -3v-98c-9 1 -18 1 -27 1c-39 0 -53 -12 -53 -43v-47h80v-94h-80v-444h-138z" />
    <glyph glyph-name="g" unicode="g" horiz-adv-x="500" 
d="M317 538h132v-511c0 -142 -63 -211 -224 -211c-117 0 -183 52 -183 144h132c0 -18 8 -32 21 -41s29 -15 46 -15c56 0 76 42 76 97v71h-2c-28 -40 -71 -66 -115 -66c-110 0 -165 75 -165 272c0 126 19 274 169 274c38 0 85 -18 111 -74h2v60zM173 252
c0 -74 11 -140 69 -140s75 63 75 154c0 131 -17 180 -72 180c-61 0 -72 -49 -72 -194z" />
    <glyph glyph-name="h" unicode="h" horiz-adv-x="500" 
d="M46 0v714h138v-231h2c26 46 73 69 131 69c86 0 137 -47 137 -153v-399h-138v371c0 54 -18 75 -59 75c-47 0 -73 -29 -73 -89v-357h-138z" />
    <glyph glyph-name="i" unicode="i" horiz-adv-x="240" 
d="M51 0v538h138v-538h-138zM51 604v118h138v-118h-138z" />
    <glyph glyph-name="j" unicode="j" horiz-adv-x="240" 
d="M51 10v528h138v-575c0 -90 -34 -139 -158 -139c-16 0 -36 1 -56 2v100c7 -2 14 -2 22 -2c49 0 54 27 54 86zM51 604v118h138v-118h-138z" />
    <glyph glyph-name="k" unicode="k" horiz-adv-x="500" 
d="M51 714h138v-377h2l139 201h152l-155 -212l178 -326h-152l-115 221l-49 -64v-157h-138v714z" />
    <glyph glyph-name="l" unicode="l" horiz-adv-x="240" 
d="M51 0v714h138v-714h-138z" />
    <glyph glyph-name="m" unicode="m" horiz-adv-x="758" 
d="M46 0v538h132v-55h2c35 49 78 69 136 69c63 0 109 -31 124 -86h2c21 57 71 86 136 86c91 0 134 -57 134 -161v-391h-138v376c0 45 -15 70 -54 70c-44 0 -72 -30 -72 -92v-354h-138v376c0 45 -15 70 -54 70c-44 0 -72 -30 -72 -92v-354h-138z" />
    <glyph glyph-name="n" unicode="n" horiz-adv-x="500" 
d="M46 0v538h132v-63h2c29 53 79 77 137 77c86 0 137 -47 137 -153v-399h-138v371c0 54 -18 75 -59 75c-47 0 -73 -29 -73 -89v-357h-138z" />
    <glyph glyph-name="o" unicode="o" 
d="M28 269c0 184 54 283 212 283c166 3 212 -96 212 -283c0 -184 -54 -283 -212 -283c-166 -3 -212 96 -212 283zM166 269c0 -110 6 -189 74 -189c56 0 74 55 74 189s-18 189 -74 189c-68 0 -74 -79 -74 -189z" />
    <glyph glyph-name="p" unicode="p" horiz-adv-x="500" 
d="M184 269c0 -117 12 -177 73 -177c60 0 72 60 72 177s-12 177 -72 177c-61 0 -73 -60 -73 -177zM46 -176v714h132v-57h2c30 50 68 71 122 71c113 0 165 -83 165 -283s-52 -283 -165 -283c-52 0 -87 21 -116 64h-2v-226h-138z" />
    <glyph glyph-name="q" unicode="q" horiz-adv-x="500" 
d="M316 269c0 117 -12 177 -73 177c-60 0 -72 -60 -72 -177s12 -177 72 -177c61 0 73 60 73 177zM316 -176v226h-2c-29 -43 -64 -64 -116 -64c-113 0 -165 83 -165 283s52 283 165 283c54 0 92 -21 122 -71h2v57h132v-714h-138z" />
    <glyph glyph-name="r" unicode="r" horiz-adv-x="333" 
d="M46 0v538h132v-72h2c28 52 67 86 124 86c8 0 17 -1 25 -2v-132c-14 1 -29 2 -43 2c-48 0 -102 -25 -102 -97v-323h-138z" />
    <glyph glyph-name="s" unicode="s" horiz-adv-x="444" 
d="M23 176h124v-18c0 -47 25 -78 72 -78c42 0 70 21 70 64c0 35 -23 51 -50 61l-97 35c-76 27 -115 74 -115 150c0 89 56 162 198 162c125 0 184 -56 184 -153v-22h-124c0 54 -16 81 -61 81c-35 0 -65 -20 -65 -58c0 -26 14 -48 60 -63l83 -28c87 -29 119 -73 119 -154
c0 -113 -84 -169 -200 -169c-155 0 -198 68 -198 171v19z" />
    <glyph glyph-name="t" unicode="t" horiz-adv-x="296" 
d="M76 538v154h138v-154h80v-94h-80v-291c0 -42 9 -59 49 -59c11 0 22 1 31 2v-96c-30 -3 -58 -6 -90 -6c-108 0 -128 33 -128 142v308h-70v94h70z" />
    <glyph glyph-name="u" unicode="u" horiz-adv-x="500" 
d="M322 0v63h-2c-29 -53 -79 -77 -137 -77c-86 0 -137 47 -137 153v399h138v-371c0 -54 18 -75 59 -75c47 0 73 29 73 89v357h138v-538h-132z" />
    <glyph glyph-name="v" unicode="v" horiz-adv-x="444" 
d="M228 153l73 385h138l-135 -538h-160l-139 538h144l77 -385h2z" />
    <glyph glyph-name="w" unicode="w" horiz-adv-x="704" 
d="M124 0l-117 538h138l63 -382h2l67 382h150l71 -382h2l65 382h132l-116 -538h-157l-71 382h-2l-67 -382h-160z" />
    <glyph glyph-name="x" unicode="x" horiz-adv-x="462" 
d="M231 376l74 162h144l-140 -261l146 -277h-144l-80 176l-80 -176h-144l146 277l-140 261h144z" />
    <glyph glyph-name="y" unicode="y" horiz-adv-x="444" 
d="M46 -176v103c12 -2 24 -3 36 -3c51 0 70 28 74 76l-151 538h144l80 -372h2l70 372h138l-130 -502c-48 -186 -79 -212 -207 -212h-56z" />
    <glyph glyph-name="z" unicode="z" horiz-adv-x="426" 
d="M24 0v106l215 320h-205v112h368v-106l-215 -320h215v-112h-378z" />
    <glyph glyph-name="braceleft" unicode="{" horiz-adv-x="315" 
d="M30 224v82c33 0 66 34 66 81v193c0 85 36 134 104 134h89v-100h-30c-32 0 -39 -34 -39 -72v-166c0 -59 -29 -102 -72 -110v-2c43 -8 72 -51 72 -110v-166c0 -38 7 -72 39 -72h30v-100h-89c-68 0 -104 49 -104 134v193c0 47 -33 81 -66 81z" />
    <glyph glyph-name="bar" unicode="|" horiz-adv-x="222" 
d="M49 -14v742h124v-742h-124z" />
    <glyph glyph-name="braceright" unicode="}" horiz-adv-x="315" 
d="M26 -184v100h30c32 0 39 34 39 72v166c0 59 29 102 72 110v2c-43 8 -72 51 -72 110v166c0 38 -7 72 -39 72h-30v100h89c68 0 104 -49 104 -134v-193c0 -47 33 -81 66 -81v-82c-33 0 -66 -34 -66 -81v-193c0 -85 -36 -134 -104 -134h-89z" />
    <glyph glyph-name="asciitilde" unicode="~" horiz-adv-x="600" 
d="M495 349l36 -106c-27 -51 -65 -86 -123 -86c-45 0 -79 14 -118 34c-57 29 -73 34 -95 34c-39 0 -79 -43 -90 -68l-36 106c27 51 65 86 123 86c37 0 72 -10 109 -29c55 -29 76 -39 104 -39c39 0 79 43 90 68z" />
    <glyph glyph-name="exclamdown" unicode="&#xa1;" horiz-adv-x="296" 
d="M79 -176v232l19 283h100l19 -283v-232h-138zM79 406v132h138v-132h-138z" />
    <glyph glyph-name="cent" unicode="&#xa2;" 
d="M222 86v366c-44 -16 -51 -78 -51 -181c0 -79 0 -170 51 -185zM222 -102v88c-106 5 -189 57 -189 279c0 150 30 275 189 287v76h52v-76c86 -6 172 -41 173 -204h-132c0 41 -5 91 -41 104v-366c39 23 41 83 41 123h132c0 -132 -51 -209 -173 -223v-88h-52z" />
    <glyph glyph-name="sterling" unicode="&#xa3;" 
d="M9 306v82h67c-30 58 -45 105 -45 142c0 100 70 178 214 178c136 0 215 -61 218 -207h-132c0 62 -20 113 -78 113c-63 0 -84 -39 -84 -79c0 -14 7 -52 26 -90l28 -57h167v-82h-141c4 -10 5 -22 5 -39c0 -58 -23 -101 -90 -156l4 -2c7 2 31 7 45 7c28 0 80 -30 114 -30
c21 0 60 13 104 42l44 -94c-48 -31 -100 -48 -149 -48c-47 0 -122 36 -182 36c-33 0 -58 -8 -98 -28l-41 86c69 44 117 109 117 177c0 15 -4 32 -11 49h-102z" />
    <glyph glyph-name="fraction" unicode="&#x2044;" horiz-adv-x="167" 
d="M-164 -31l406 756h89l-406 -756h-89z" />
    <glyph glyph-name="fraction" unicode="&#x2215;" horiz-adv-x="167" 
d="M-164 -31l406 756h89l-406 -756h-89z" />
    <glyph glyph-name="yen" unicode="&#xa5;" 
d="M178 0v159h-142v82h142v43l-11 23h-131v82h92l-145 305h149l107 -269h2l112 269h144l-145 -305h92v-82h-131l-11 -23v-43h142v-82h-142v-159h-124z" />
    <glyph glyph-name="florin" unicode="&#x192;" 
d="M64 346l16 82h105l17 89c27 142 74 197 198 197c24 0 52 -1 75 -3l-19 -94c-10 3 -19 3 -28 3c-65 0 -77 -26 -96 -119l-15 -73h110l-15 -82h-111l-65 -342c-21 -113 -60 -180 -199 -180c-31 0 -58 2 -72 7l20 91c12 -3 23 -4 35 -4c59 0 71 27 85 98l64 330h-105z" />
    <glyph glyph-name="section" unicode="&#xa7;" horiz-adv-x="481" 
d="M38 37h132v-15c0 -50 30 -80 70 -80c47 0 66 34 66 67c0 37 -17 61 -64 84l-123 59c-74 36 -106 90 -106 154c0 62 35 115 90 143c-39 29 -60 67 -60 114c0 119 91 165 205 165c136 0 190 -68 190 -162h-132c0 19 -4 36 -14 49s-28 19 -55 19c-38 0 -62 -25 -62 -57
c0 -23 17 -47 64 -69l119 -56c61 -29 110 -76 110 -163c0 -51 -31 -114 -78 -142c33 -26 54 -66 54 -124c0 -119 -76 -175 -204 -175c-137 0 -202 68 -202 174v15zM165 272l99 -54c14 -8 27 -16 39 -25c35 29 47 54 47 75c0 34 -17 55 -68 82l-96 51
c-38 -23 -55 -50 -55 -75c0 -19 12 -42 34 -54z" />
    <glyph glyph-name="currency" unicode="&#xa4;" 
d="M61 107l-61 62l50 50c-24 36 -39 80 -39 128c0 47 14 91 39 128l-50 50l61 62l51 -50c37 25 81 39 128 39c48 0 92 -15 128 -39l51 50l61 -62l-50 -50c25 -37 39 -81 39 -128s-14 -91 -39 -128l50 -50l-61 -62l-51 51c-36 -25 -80 -40 -128 -40c-47 0 -91 14 -128 40z
M117 347c0 -80 49 -129 123 -129s123 49 123 129s-49 129 -123 129s-123 -49 -123 -129z" />
    <glyph glyph-name="quotesingle" unicode="'" horiz-adv-x="260" 
d="M68 393v321h124v-321h-124z" />
    <glyph glyph-name="quotedblleft" unicode="&#x201c;" horiz-adv-x="463" 
d="M263 393v130c0 106 25 181 132 191v-70c-35 -6 -52 -42 -52 -79v-16h52v-156h-132zM68 393v130c0 106 25 181 132 191v-70c-35 -6 -52 -42 -52 -79v-16h52v-156h-132z" />
    <glyph glyph-name="guillemotleft" unicode="&#xab;" horiz-adv-x="426" 
d="M225 208v162l149 120v-132l-79 -69l79 -69v-132zM52 208v162l149 120v-132l-79 -69l79 -69v-132z" />
    <glyph glyph-name="guilsinglleft" unicode="&#x2039;" horiz-adv-x="241" 
d="M46 208v162l149 120v-132l-79 -69l79 -69v-132z" />
    <glyph glyph-name="guilsinglright" unicode="&#x203a;" horiz-adv-x="241" 
d="M46 88v132l79 69l-79 69v132l149 -120v-162z" />
    <glyph glyph-name="fi" unicode="&#xfb01;" horiz-adv-x="537" 
d="M348 0v538h138v-538h-138zM348 604v118h138v-118h-138zM76 0v444h-70v94h70v61c0 97 55 129 144 129c25 0 49 -1 74 -3v-98c-9 1 -18 1 -27 1c-39 0 -53 -12 -53 -43v-47h80v-94h-80v-444h-138z" />
    <glyph glyph-name="fl" unicode="&#xfb02;" horiz-adv-x="537" 
d="M348 0v722h138v-722h-138zM76 0v444h-70v94h70v61c0 97 55 129 144 129c25 0 49 -1 74 -3v-98c-9 1 -18 1 -27 1c-39 0 -53 -12 -53 -43v-47h80v-94h-80v-444h-138z" />
    <glyph glyph-name="endash" unicode="&#x2013;" horiz-adv-x="500" 
d="M0 233v112h500v-112h-500z" />
    <glyph glyph-name="dagger" unicode="&#x2020;" 
d="M171 516v198h138v-198h168v-112h-168v-542h-138v542h-168v112h168z" />
    <glyph glyph-name="daggerdbl" unicode="&#x2021;" 
d="M171 -138v190h-168v112h168v248h-168v112h168v190h138v-190h168v-112h-168v-248h168v-112h-168v-190h-138z" />
    <glyph glyph-name="periodcentered" unicode="&#xb7;" horiz-adv-x="240" 
d="M23 282c0 54 43 97 97 97s97 -43 97 -97s-43 -97 -97 -97s-97 43 -97 97z" />
    <glyph glyph-name="periodcentered" unicode="&#x2219;" horiz-adv-x="240" 
d="M23 282c0 54 43 97 97 97s97 -43 97 -97s-43 -97 -97 -97s-97 43 -97 97z" />
    <glyph glyph-name="paragraph" unicode="&#xb6;" 
d="M182 -138v473c-118 0 -181 66 -181 186c0 153 80 193 198 193h268v-852h-106v758h-73v-758h-106z" />
    <glyph glyph-name="bullet" unicode="&#x2022;" horiz-adv-x="500" 
d="M72 357c0 98 80 178 178 178s178 -80 178 -178s-80 -178 -178 -178s-178 80 -178 178z" />
    <glyph glyph-name="quotesinglbase" unicode="&#x201a;" horiz-adv-x="260" 
d="M64 156h132v-130c0 -106 -25 -181 -132 -191v70c35 6 52 42 52 79v16h-52v156z" />
    <glyph glyph-name="quotedblbase" unicode="&#x201e;" horiz-adv-x="463" 
d="M263 0v156h132v-130c0 -106 -25 -181 -132 -191v70c35 6 52 42 52 79v16h-52zM68 0v156h132v-130c0 -106 -25 -181 -132 -191v70c35 6 52 42 52 79v16h-52z" />
    <glyph glyph-name="quotedblright" unicode="&#x201d;" horiz-adv-x="463" 
d="M68 558v156h132v-130c0 -106 -25 -181 -132 -191v70c35 6 52 42 52 79v16h-52zM263 558v156h132v-130c0 -106 -25 -181 -132 -191v70c35 6 52 42 52 79v16h-52z" />
    <glyph glyph-name="guillemotright" unicode="&#xbb;" horiz-adv-x="426" 
d="M52 88v132l79 69l-79 69v132l149 -120v-162zM225 88v132l79 69l-79 69v132l149 -120v-162z" />
    <glyph glyph-name="ellipsis" unicode="&#x2026;" horiz-adv-x="1000" 
d="M101 156h132v-156h-132v156zM434 156h132v-156h-132v156zM767 156h132v-156h-132v156z" />
    <glyph glyph-name="perthousand" unicode="&#x2030;" horiz-adv-x="1093" 
d="M872 181c0 -79 4 -119 44 -119s44 40 44 119c0 71 -4 111 -44 111s-44 -40 -44 -111zM766 177c0 129 26 191 150 191s150 -62 150 -191s-26 -191 -150 -191s-150 62 -150 191zM27 517c0 129 26 191 150 191s150 -62 150 -191s-26 -191 -150 -191s-150 62 -150 191z
M133 521c0 -79 4 -119 44 -119s44 40 44 119c0 71 -4 111 -44 111s-44 -40 -44 -111zM428 177c0 129 26 191 150 191s150 -62 150 -191s-26 -191 -150 -191s-150 62 -150 191zM534 181c0 -79 4 -119 44 -119s44 40 44 119c0 71 -4 111 -44 111s-44 -40 -44 -111zM128 -31
l406 756h89l-406 -756h-89z" />
    <glyph glyph-name="questiondown" unicode="&#xbf;" horiz-adv-x="481" 
d="M313 45h132v-23c0 -120 -66 -206 -198 -206c-140 0 -211 76 -211 193c0 54 15 102 63 156l40 45c35 39 49 64 49 115v15h124v-39c0 -67 -17 -106 -62 -157l-38 -43c-28 -31 -38 -66 -38 -106c0 -51 23 -85 68 -85c51 0 71 45 71 110v25zM319 406h-138v132h138v-132z" />
    <glyph glyph-name="grave" unicode="`" horiz-adv-x="222" 
d="M176 601h-94l-98 144h138z" />
    <glyph glyph-name="acute" unicode="&#xb4;" horiz-adv-x="222" 
d="M46 601l54 144h138l-98 -144h-94z" />
    <glyph glyph-name="circumflex" unicode="&#x2c6;" horiz-adv-x="222" 
d="M-39 601l78 144h144l78 -144h-106l-46 85l-48 -85h-100z" />
    <glyph glyph-name="tilde" unicode="&#x2dc;" horiz-adv-x="222" 
d="M24 610h-70c11 78 42 124 93 124c18 0 31 -2 43 -7l48 -21c10 -4 20 -6 30 -6c19 0 28 23 28 36h72c-7 -71 -42 -124 -93 -124c-43 0 -87 34 -119 34c-15 0 -27 -11 -32 -36z" />
    <glyph glyph-name="macron" unicode="&#xaf;" horiz-adv-x="222" 
d="M-36 714h294v-76h-294v76z" />
    <glyph glyph-name="macron" unicode="&#x2c9;" horiz-adv-x="222" 
d="M-36 714h294v-76h-294v76z" />
    <glyph glyph-name="breve" unicode="&#x2d8;" horiz-adv-x="222" 
d="M-28 745h65c4 -38 36 -65 74 -65s70 27 74 65h65c-1 -54 -31 -141 -139 -141s-138 87 -139 141z" />
    <glyph glyph-name="dotaccent" unicode="&#x2d9;" horiz-adv-x="222" 
d="M55 728h112v-118h-112v118z" />
    <glyph glyph-name="dieresis" unicode="&#xa8;" horiz-adv-x="222" 
d="M-31 610v118h112v-118h-112zM141 610v118h112v-118h-112z" />
    <glyph glyph-name="ring" unicode="&#x2da;" horiz-adv-x="222" 
d="M-3 698c0 63 51 114 114 114s114 -51 114 -114s-51 -114 -114 -114s-114 51 -114 114zM53 698c0 -32 26 -58 58 -58s58 26 58 58s-26 58 -58 58s-58 -26 -58 -58z" />
    <glyph glyph-name="cedilla" unicode="&#xb8;" horiz-adv-x="222" 
d="M93 0h54l-38 -61c12 3 21 5 33 5c39 0 84 -27 84 -74c0 -58 -45 -94 -126 -94c-44 0 -84 10 -100 19l19 46c14 -8 44 -15 69 -15c28 0 50 15 50 34c0 20 -17 34 -44 34c-14 0 -23 -2 -34 -6l-22 20z" />
    <glyph glyph-name="hungarumlaut" unicode="&#x2dd;" horiz-adv-x="222" 
d="M-37 601l54 144h138l-98 -144h-94zM129 601l54 144h138l-98 -144h-94z" />
    <glyph glyph-name="ogonek" unicode="&#x2db;" horiz-adv-x="222" 
d="M210 -144l19 -57c-28 -15 -76 -23 -109 -23c-73 0 -96 43 -96 86c0 59 42 108 123 138h67c-85 -61 -102 -88 -102 -120c0 -22 14 -40 39 -40c24 0 39 5 59 16z" />
    <glyph glyph-name="caron" unicode="&#x2c7;" horiz-adv-x="222" 
d="M39 601l-78 144h106l46 -85l48 85h100l-78 -144h-144z" />
    <glyph glyph-name="emdash" unicode="&#x2014;" horiz-adv-x="1000" 
d="M0 233v112h1000v-112h-1000z" />
    <glyph glyph-name="AE" unicode="&#xc6;" horiz-adv-x="759" 
d="M-5 0l269 714h463v-118h-235v-168h220v-118h-220v-192h245v-118h-383v151h-159l-50 -151h-150zM234 269h120v333h-9z" />
    <glyph glyph-name="ordfeminine" unicode="&#xaa;" horiz-adv-x="314" 
d="M293 609v-172c0 -30 2 -43 11 -63h-100c-6 11 -8 24 -11 35c-22 -34 -47 -42 -94 -42c-67 0 -89 49 -89 92c0 62 26 89 89 102l58 12c27 6 36 17 36 34c0 22 -12 37 -37 37c-27 0 -41 -17 -41 -39v-9h-94v13c0 74 56 99 137 99c115 0 135 -41 135 -99zM193 478v59
c-11 -8 -25 -13 -35 -15c-35 -7 -48 -22 -48 -49c0 -23 9 -42 32 -42c22 0 51 13 51 47z" />
    <glyph glyph-name="Lslash" unicode="&#x141;" horiz-adv-x="463" 
d="M50 0v256l-50 -31v106l50 31v352h144v-262l126 79v-106l-126 -79v-228h255v-118h-399z" />
    <glyph glyph-name="Oslash" unicode="&#xd8;" horiz-adv-x="556" 
d="M187 209l161 377c-15 25 -37 36 -70 36c-85 0 -99 -74 -99 -265c0 -62 1 -111 6 -148h2zM369 505l-161 -376c14 -26 36 -37 70 -37c85 0 99 73 99 265c0 61 -1 110 -6 148h-2zM83 -30l30 70c-67 62 -78 176 -78 317c0 217 27 371 243 371c50 0 89 -8 121 -24l26 61
l48 -21l-30 -70c67 -62 78 -176 78 -317c0 -217 -27 -371 -243 -371c-50 0 -90 8 -121 24l-26 -61z" />
    <glyph glyph-name="OE" unicode="&#x152;" horiz-adv-x="778" 
d="M748 714v-118h-242v-168h227v-118h-227v-192h250v-118h-373v41h-2c-16 -35 -75 -55 -123 -55c-209 0 -223 189 -223 379c0 185 29 363 216 363c50 0 106 -12 130 -52h2v38h365zM179 357c0 -190 12 -265 99 -265c85 0 90 64 90 265s-5 265 -90 265c-87 0 -99 -75 -99 -265
z" />
    <glyph glyph-name="ordmasculine" unicode="&#xba;" horiz-adv-x="314" 
d="M12 537c0 112 35 171 145 171c115 2 145 -57 145 -171c0 -111 -35 -170 -145 -170c-115 -2 -145 57 -145 170zM112 537c0 -62 4 -106 45 -106c33 0 45 31 45 106c0 76 -12 107 -45 107c-41 0 -45 -45 -45 -107z" />
    <glyph glyph-name="ae" unicode="&#xe6;" horiz-adv-x="722" 
d="M296 163v106c-19 -14 -42 -23 -59 -27c-56 -12 -78 -39 -78 -87c0 -41 15 -75 52 -75s85 24 85 83zM424 330h139c-3 82 -13 128 -69 128c-54 0 -70 -57 -70 -107v-21zM168 373h-124v13c0 124 85 166 189 166c71 0 110 -15 139 -64c20 41 69 64 127 64
c160 0 196 -108 196 -273v-31h-271v-43c0 -63 17 -125 67 -125c45 0 64 35 72 101h124c-5 -125 -65 -195 -194 -195c-99 0 -143 46 -162 93c-43 -80 -89 -93 -174 -93c-96 0 -130 82 -130 154c0 101 41 142 136 168l78 21c41 11 55 27 55 63c0 41 -18 66 -64 66
c-42 0 -64 -28 -64 -70v-15z" />
    <glyph glyph-name="dotlessi" unicode="&#x131;" horiz-adv-x="240" 
d="M51 0v538h138v-538h-138z" />
    <glyph glyph-name="lslash" unicode="&#x142;" horiz-adv-x="240" 
d="M51 0v282l-63 -42v88l63 42v344h138v-253l63 41v-88l-63 -41v-373h-138z" />
    <glyph glyph-name="oslash" unicode="&#xf8;" 
d="M170 186l123 238c-11 24 -28 34 -53 34c-68 0 -74 -79 -74 -189c0 -31 0 -59 2 -83h2zM310 351l-124 -238c10 -21 27 -33 54 -33c56 0 74 55 74 189c0 32 -1 59 -2 82h-2zM53 -35l37 70c-46 45 -62 124 -62 234c0 184 54 283 212 283c45 1 81 -6 109 -21l34 65l44 -23
l-37 -70c46 -45 62 -124 62 -234c0 -184 -54 -283 -212 -283c-45 -1 -82 6 -109 21l-34 -65z" />
    <glyph glyph-name="oe" unicode="&#x153;" horiz-adv-x="741" 
d="M712 248h-273v-43c0 -63 17 -125 68 -125c46 0 65 35 73 101h124c-5 -125 -65 -195 -187 -195c-84 0 -125 39 -140 79c-19 -51 -79 -79 -148 -79c-154 0 -200 96 -200 283c0 184 54 283 212 283c74 0 116 -24 143 -75c27 49 78 75 131 75c161 0 197 -108 197 -273v-31z
M243 80c54 0 72 55 72 189s-18 189 -74 189c-68 0 -74 -79 -74 -189s6 -189 76 -189zM439 330h141c-3 82 -13 128 -70 128c-55 0 -71 -57 -71 -107v-21z" />
    <glyph glyph-name="germandbls" unicode="&#xdf;" horiz-adv-x="500" 
d="M179 0h-138v527c0 139 68 201 212 201c126 0 197 -60 197 -171c0 -74 -19 -117 -89 -147v-2c80 -13 111 -84 111 -192c0 -98 -28 -222 -179 -222c-23 0 -51 1 -66 4v94c6 -2 14 -4 21 -4c73 0 86 56 86 146c0 73 -19 121 -80 121h-25v94h17c48 0 66 40 66 95
c0 47 -15 90 -66 90c-55 0 -67 -46 -67 -110v-524z" />
    <glyph glyph-name="onesuperior" unicode="&#xb9;" horiz-adv-x="312" 
d="M115 280v290h-91v70h8c61 0 100 22 109 68h86v-428h-112z" />
    <glyph glyph-name="logicalnot" unicode="&#xac;" horiz-adv-x="600" 
d="M429 98v202h-382v124h506v-326h-124z" />
    <glyph glyph-name="mu" unicode="&#xb5;" horiz-adv-x="500" 
d="M316 181v357h138v-538h-132v63h-2c-29 -53 -73 -77 -106 -77c-14 0 -24 4 -30 8v-170h-138v714h138v-371c0 -54 18 -75 59 -75c47 0 73 29 73 89z" />
    <glyph glyph-name="mu" unicode="&#x3bc;" horiz-adv-x="500" 
d="M316 181v357h138v-538h-132v63h-2c-29 -53 -73 -77 -106 -77c-14 0 -24 4 -30 8v-170h-138v714h138v-371c0 -54 18 -75 59 -75c47 0 73 29 73 89z" />
    <glyph glyph-name="trademark" unicode="&#x2122;" horiz-adv-x="990" 
d="M842 300v284h-2l-95 -284h-100l-95 284h-2v-284h-106v414h169l83 -250h2l83 250h169v-414h-106zM143 300v320h-112v94h336v-94h-112v-320h-112z" />
    <glyph glyph-name="Eth" unicode="&#xd0;" horiz-adv-x="574" 
d="M57 0v315h-57v106h57v293h236c200 0 236 -137 236 -347c0 -253 -54 -367 -245 -367h-227zM201 608v-187h93v-106h-93v-209h64c100 0 120 63 120 257c0 162 -13 245 -123 245h-61z" />
    <glyph glyph-name="onehalf" unicode="&#xbd;" horiz-adv-x="721" 
d="M72 -31l406 756h89l-406 -756h-89zM91 280v290h-91v70h8c61 0 100 22 109 68h86v-428h-112zM721 0h-312c0 76 27 135 101 188l50 36c38 28 49 50 49 81c0 26 -17 47 -43 47c-43 0 -50 -41 -51 -73h-106v25c0 79 45 124 160 124c106 0 152 -43 152 -108
c0 -55 -14 -90 -66 -130l-57 -44c-35 -27 -49 -48 -53 -64h176v-82z" />
    <glyph glyph-name="plusminus" unicode="&#xb1;" horiz-adv-x="600" 
d="M238 398v108h124v-108h191v-124h-191v-108h-124v108h-191v124h191zM47 0v124h506v-124h-506z" />
    <glyph glyph-name="Thorn" unicode="&#xde;" horiz-adv-x="519" 
d="M50 0v714h144v-128h108c146 0 196 -107 196 -214c0 -148 -91 -215 -227 -215h-77v-157h-144zM194 480v-217h64c57 0 96 34 96 107c0 70 -28 110 -100 110h-60z" />
    <glyph glyph-name="onequarter" unicode="&#xbc;" horiz-adv-x="721" 
d="M571 159v145h-2l-86 -145h88zM401 77v91l152 260h124v-269h44v-82h-44v-77h-106v77h-170zM96 -31l406 756h89l-406 -756h-89zM91 280v290h-91v70h8c61 0 100 22 109 68h86v-428h-112z" />
    <glyph glyph-name="divide" unicode="&#xf7;" horiz-adv-x="600" 
d="M47 191v124h506v-124h-506zM203 465c0 54 43 97 97 97s97 -43 97 -97s-43 -97 -97 -97s-97 43 -97 97zM203 41c0 54 43 97 97 97s97 -43 97 -97s-43 -97 -97 -97s-97 43 -97 97z" />
    <glyph glyph-name="brokenbar" unicode="&#xa6;" horiz-adv-x="222" 
d="M49 -14v271h124v-271h-124zM49 457v271h124v-271h-124z" />
    <glyph glyph-name="degree" unicode="&#xb0;" horiz-adv-x="400" 
d="M52 560c0 82 66 148 148 148s148 -66 148 -148s-66 -148 -148 -148s-148 66 -148 148zM128 560c0 -40 32 -72 72 -72s72 32 72 72s-32 72 -72 72s-72 -32 -72 -72z" />
    <glyph glyph-name="thorn" unicode="&#xfe;" horiz-adv-x="500" 
d="M184 269c0 -117 12 -177 73 -177c60 0 72 60 72 177s-12 177 -72 177c-61 0 -73 -60 -73 -177zM46 -176v890h138v-233h2c24 50 62 71 116 71c113 0 165 -83 165 -283s-52 -283 -165 -283c-52 0 -87 21 -116 64h-2v-226h-138z" />
    <glyph glyph-name="threequarters" unicode="&#xbe;" horiz-adv-x="721" 
d="M401 77v91l152 260h124v-269h44v-82h-44v-77h-106v77h-170zM483 159h88v145h-2zM135 -31l406 756h89l-406 -756h-89zM0 416h106c1 -37 12 -67 49 -67c32 0 45 24 45 53c0 28 -9 63 -60 63h-28v70h28c39 0 54 26 54 53c0 25 -17 44 -41 44c-37 0 -46 -28 -46 -60h-100
c0 47 12 80 36 103s61 33 109 33c99 0 148 -34 148 -109c0 -52 -26 -86 -70 -95v-2c59 -10 82 -47 82 -100c0 -57 -25 -129 -169 -129c-99 0 -143 50 -143 133v10z" />
    <glyph glyph-name="twosuperior" unicode="&#xb2;" horiz-adv-x="312" 
d="M312 280h-312c0 76 27 135 101 188l50 36c38 28 49 50 49 81c0 26 -17 47 -43 47c-43 0 -50 -41 -51 -73h-106v25c0 79 45 124 160 124c106 0 152 -43 152 -108c0 -55 -14 -90 -66 -130l-57 -44c-35 -27 -49 -48 -53 -64h176v-82z" />
    <glyph glyph-name="registered" unicode="&#xae;" horiz-adv-x="800" 
d="M255 157v400h156c104 0 154 -45 154 -124c0 -66 -44 -104 -99 -111l99 -165h-96l-94 161h-32v-161h-88zM343 487v-99h67c39 0 67 7 67 50c0 44 -43 49 -76 49h-58zM29 357c0 205 166 371 371 371s371 -166 371 -371s-166 -371 -371 -371s-371 166 -371 371zM141 357
c0 -145 110 -265 259 -265s259 120 259 265s-110 265 -259 265s-259 -120 -259 -265z" />
    <glyph glyph-name="minus" unicode="&#x2212;" horiz-adv-x="600" 
d="M47 191v124h506v-124h-506z" />
    <glyph glyph-name="eth" unicode="&#xf0;" 
d="M166 262c0 -106 6 -182 74 -182c56 0 74 53 74 182c0 123 -18 176 -74 176c-68 0 -74 -76 -74 -176zM105 583l-39 42l76 45c-22 22 -45 44 -66 64l104 61c24 -21 46 -42 67 -63l75 45l43 -42l-77 -45c106 -116 164 -238 164 -421c0 -184 -54 -283 -212 -283
c-166 -3 -212 96 -212 283c0 159 52 263 174 263c22 0 48 -8 70 -26l2 2c-24 39 -57 80 -92 120z" />
    <glyph glyph-name="multiply" unicode="&#xd7;" horiz-adv-x="600" 
d="M59 98l156 155l-156 155l86 86l155 -156l155 156l86 -86l-156 -155l156 -155l-86 -86l-155 156l-155 -156z" />
    <glyph glyph-name="threesuperior" unicode="&#xb3;" horiz-adv-x="312" 
d="M0 416h106c1 -37 12 -67 49 -67c32 0 45 24 45 53c0 28 -9 63 -60 63h-28v70h28c39 0 54 26 54 53c0 25 -17 44 -41 44c-37 0 -46 -28 -46 -60h-100c0 47 12 80 36 103s61 33 109 33c99 0 148 -34 148 -109c0 -52 -26 -86 -70 -95v-2c59 -10 82 -47 82 -100
c0 -57 -25 -129 -169 -129c-99 0 -143 50 -143 133v10z" />
    <glyph glyph-name="copyright" unicode="&#xa9;" horiz-adv-x="800" 
d="M495 298h100c-15 -100 -95 -156 -180 -156c-127 0 -207 97 -207 218c0 123 76 218 204 218c89 0 166 -53 179 -153h-96c-10 39 -38 67 -88 67c-69 0 -105 -56 -105 -132c0 -73 40 -132 104 -132c49 0 83 28 89 70zM141 357c0 -145 110 -265 259 -265s259 120 259 265
s-110 265 -259 265s-259 -120 -259 -265zM29 357c0 205 166 371 371 371s371 -166 371 -371s-166 -371 -371 -371s-371 166 -371 371z" />
    <glyph glyph-name="Aacute" unicode="&#xc1;" horiz-adv-x="556" 
d="M0 0l189 714h178l189 -714h-150l-33 151h-190l-33 -151h-150zM277 590l-69 -321h140l-69 321h-2zM213 756l54 144h138l-98 -144h-94z" />
    <glyph glyph-name="Acircumflex" unicode="&#xc2;" horiz-adv-x="556" 
d="M0 0l189 714h178l189 -714h-150l-33 151h-190l-33 -151h-150zM277 590l-69 -321h140l-69 321h-2zM128 756l78 144h144l78 -144h-106l-46 85l-48 -85h-100z" />
    <glyph glyph-name="Adieresis" unicode="&#xc4;" horiz-adv-x="556" 
d="M0 0l189 714h178l189 -714h-150l-33 151h-190l-33 -151h-150zM277 590l-69 -321h140l-69 321h-2zM136 765v118h112v-118h-112zM308 765v118h112v-118h-112z" />
    <glyph glyph-name="Agrave" unicode="&#xc0;" horiz-adv-x="556" 
d="M0 0l189 714h178l189 -714h-150l-33 151h-190l-33 -151h-150zM277 590l-69 -321h140l-69 321h-2zM343 756h-94l-98 144h138z" />
    <glyph glyph-name="Aring" unicode="&#xc5;" horiz-adv-x="556" 
d="M0 0l189 714h178l189 -714h-150l-33 151h-190l-33 -151h-150zM277 590l-69 -321h140l-69 321h-2zM164 847c0 63 51 114 114 114s114 -51 114 -114s-51 -114 -114 -114s-114 51 -114 114zM220 847c0 -32 26 -58 58 -58s58 26 58 58s-26 58 -58 58s-58 -26 -58 -58z" />
    <glyph glyph-name="Atilde" unicode="&#xc3;" horiz-adv-x="556" 
d="M0 0l189 714h178l189 -714h-150l-33 151h-190l-33 -151h-150zM277 590l-69 -321h140l-69 321h-2zM191 765h-70c11 78 42 124 93 124c18 0 31 -2 43 -7l48 -21c10 -4 20 -6 30 -6c19 0 28 23 28 36h72c-7 -71 -42 -124 -93 -124c-43 0 -87 34 -119 34
c-15 0 -27 -11 -32 -36z" />
    <glyph glyph-name="Ccedilla" unicode="&#xc7;" horiz-adv-x="537" 
d="M214 -92l47 78c-201 9 -226 160 -226 371c0 217 27 371 243 371c206 0 221 -151 221 -255h-144c0 104 -21 149 -86 149c-73 0 -90 -73 -90 -275c0 -216 30 -255 92 -255c52 0 90 27 90 181h144c0 -144 -33 -269 -190 -286l-30 -48c12 3 21 5 33 5c39 0 84 -27 84 -74
c0 -58 -45 -94 -126 -94c-44 0 -84 10 -100 19l19 46c14 -8 44 -15 69 -15c28 0 50 15 50 34c0 20 -17 34 -44 34c-14 0 -23 -2 -34 -6z" />
    <glyph glyph-name="Eacute" unicode="&#xc9;" horiz-adv-x="481" 
d="M50 714h399v-118h-255v-168h240v-118h-240v-192h265v-118h-409v714zM188 756l54 144h138l-98 -144h-94z" />
    <glyph glyph-name="Ecircumflex" unicode="&#xca;" horiz-adv-x="481" 
d="M50 714h399v-118h-255v-168h240v-118h-240v-192h265v-118h-409v714zM103 756l78 144h144l78 -144h-106l-46 85l-48 -85h-100z" />
    <glyph glyph-name="Edieresis" unicode="&#xcb;" horiz-adv-x="481" 
d="M50 714h399v-118h-255v-168h240v-118h-240v-192h265v-118h-409v714zM111 765v118h112v-118h-112zM283 765v118h112v-118h-112z" />
    <glyph glyph-name="Egrave" unicode="&#xc8;" horiz-adv-x="481" 
d="M50 714h399v-118h-255v-168h240v-118h-240v-192h265v-118h-409v714zM318 756h-94l-98 144h138z" />
    <glyph glyph-name="Iacute" unicode="&#xcd;" horiz-adv-x="258" 
d="M201 0h-144v714h144v-714zM64 756l54 144h138l-98 -144h-94z" />
    <glyph glyph-name="Icircumflex" unicode="&#xce;" horiz-adv-x="258" 
d="M201 0h-144v714h144v-714zM-21 756l78 144h144l78 -144h-106l-46 85l-48 -85h-100z" />
    <glyph glyph-name="Idieresis" unicode="&#xcf;" horiz-adv-x="258" 
d="M201 0h-144v714h144v-714zM-13 765v118h112v-118h-112zM159 765v118h112v-118h-112z" />
    <glyph glyph-name="Igrave" unicode="&#xcc;" horiz-adv-x="258" 
d="M201 0h-144v714h144v-714zM194 756h-94l-98 144h138z" />
    <glyph glyph-name="Ntilde" unicode="&#xd1;" horiz-adv-x="574" 
d="M50 714h166l174 -489h2v489h132v-714h-164l-176 500h-2v-500h-132v714zM200 765h-70c11 78 42 124 93 124c18 0 31 -2 43 -7l48 -21c10 -4 20 -6 30 -6c19 0 28 23 28 36h72c-7 -71 -42 -124 -93 -124c-43 0 -87 34 -119 34c-15 0 -27 -11 -32 -36z" />
    <glyph glyph-name="Oacute" unicode="&#xd3;" horiz-adv-x="556" 
d="M35 357c0 217 27 371 243 371s243 -154 243 -371s-27 -371 -243 -371s-243 154 -243 371zM179 357c0 -192 14 -265 99 -265s99 73 99 265c0 191 -14 265 -99 265s-99 -74 -99 -265zM213 756l54 144h138l-98 -144h-94z" />
    <glyph glyph-name="Ocircumflex" unicode="&#xd4;" horiz-adv-x="556" 
d="M35 357c0 217 27 371 243 371s243 -154 243 -371s-27 -371 -243 -371s-243 154 -243 371zM179 357c0 -192 14 -265 99 -265s99 73 99 265c0 191 -14 265 -99 265s-99 -74 -99 -265zM128 756l78 144h144l78 -144h-106l-46 85l-48 -85h-100z" />
    <glyph glyph-name="Odieresis" unicode="&#xd6;" horiz-adv-x="556" 
d="M35 357c0 217 27 371 243 371s243 -154 243 -371s-27 -371 -243 -371s-243 154 -243 371zM179 357c0 -192 14 -265 99 -265s99 73 99 265c0 191 -14 265 -99 265s-99 -74 -99 -265zM136 765v118h112v-118h-112zM308 765v118h112v-118h-112z" />
    <glyph glyph-name="Ograve" unicode="&#xd2;" horiz-adv-x="556" 
d="M35 357c0 217 27 371 243 371s243 -154 243 -371s-27 -371 -243 -371s-243 154 -243 371zM179 357c0 -192 14 -265 99 -265s99 73 99 265c0 191 -14 265 -99 265s-99 -74 -99 -265zM343 756h-94l-98 144h138z" />
    <glyph glyph-name="Otilde" unicode="&#xd5;" horiz-adv-x="556" 
d="M35 357c0 217 27 371 243 371s243 -154 243 -371s-27 -371 -243 -371s-243 154 -243 371zM179 357c0 -192 14 -265 99 -265s99 73 99 265c0 191 -14 265 -99 265s-99 -74 -99 -265zM191 765h-70c11 78 42 124 93 124c18 0 31 -2 43 -7l48 -21c10 -4 20 -6 30 -6
c19 0 28 23 28 36h72c-7 -71 -42 -124 -93 -124c-43 0 -87 34 -119 34c-15 0 -27 -11 -32 -36z" />
    <glyph glyph-name="Scaron" unicode="&#x160;" horiz-adv-x="519" 
d="M22 223h144v-21c0 -67 19 -110 95 -110c44 0 86 28 86 88c0 65 -33 89 -128 122c-128 44 -187 97 -187 216c0 139 85 210 221 210c128 0 221 -55 221 -192v-20h-138c0 67 -23 106 -78 106c-65 0 -82 -41 -82 -83c0 -44 13 -71 74 -97l111 -48c108 -47 136 -102 136 -189
c0 -151 -92 -219 -248 -219c-163 0 -227 76 -227 208v29zM188 756l-78 144h106l46 -85l48 85h100l-78 -144h-144z" />
    <glyph glyph-name="Uacute" unicode="&#xda;" horiz-adv-x="538" 
d="M41 714h144v-498c0 -71 17 -124 84 -124s84 53 84 124v498h144v-498c0 -182 -111 -230 -228 -230s-228 39 -228 230v498zM204 756l54 144h138l-98 -144h-94z" />
    <glyph glyph-name="Ucircumflex" unicode="&#xdb;" horiz-adv-x="538" 
d="M41 714h144v-498c0 -71 17 -124 84 -124s84 53 84 124v498h144v-498c0 -182 -111 -230 -228 -230s-228 39 -228 230v498zM119 756l78 144h144l78 -144h-106l-46 85l-48 -85h-100z" />
    <glyph glyph-name="Udieresis" unicode="&#xdc;" horiz-adv-x="538" 
d="M41 714h144v-498c0 -71 17 -124 84 -124s84 53 84 124v498h144v-498c0 -182 -111 -230 -228 -230s-228 39 -228 230v498zM127 765v118h112v-118h-112zM299 765v118h112v-118h-112z" />
    <glyph glyph-name="Ugrave" unicode="&#xd9;" horiz-adv-x="538" 
d="M41 714h144v-498c0 -71 17 -124 84 -124s84 53 84 124v498h144v-498c0 -182 -111 -230 -228 -230s-228 39 -228 230v498zM334 756h-94l-98 144h138z" />
    <glyph glyph-name="Yacute" unicode="&#xdd;" horiz-adv-x="520" 
d="M3 714h162l94 -276h2l100 276h156l-185 -433v-281h-144v281zM195 756l54 144h138l-98 -144h-94z" />
    <glyph glyph-name="Ydieresis" unicode="&#x178;" horiz-adv-x="520" 
d="M3 714h162l94 -276h2l100 276h156l-185 -433v-281h-144v281zM118 765v118h112v-118h-112zM290 765v118h112v-118h-112z" />
    <glyph glyph-name="Zcaron" unicode="&#x17d;" horiz-adv-x="481" 
d="M24 0v105l263 491h-245v118h411v-109l-267 -487h271v-118h-433zM169 756l-78 144h106l46 -85l48 85h100l-78 -144h-144z" />
    <glyph glyph-name="aacute" unicode="&#xe1;" horiz-adv-x="481" 
d="M169 373h-124v13c0 124 85 166 189 166c164 0 195 -68 195 -165v-283c0 -50 3 -73 17 -104h-132c-9 17 -13 38 -17 56h-2c-32 -56 -71 -70 -137 -70c-96 0 -130 82 -130 154c0 101 41 142 136 168l78 21c41 11 55 27 55 63c0 41 -18 66 -64 66c-42 0 -64 -28 -64 -70v-15
zM297 163v106c-19 -14 -42 -23 -59 -27c-56 -12 -78 -39 -78 -87c0 -41 15 -75 52 -75s85 24 85 83zM176 601l54 144h138l-98 -144h-94z" />
    <glyph glyph-name="acircumflex" unicode="&#xe2;" horiz-adv-x="481" 
d="M169 373h-124v13c0 124 85 166 189 166c164 0 195 -68 195 -165v-283c0 -50 3 -73 17 -104h-132c-9 17 -13 38 -17 56h-2c-32 -56 -71 -70 -137 -70c-96 0 -130 82 -130 154c0 101 41 142 136 168l78 21c41 11 55 27 55 63c0 41 -18 66 -64 66c-42 0 -64 -28 -64 -70v-15
zM297 163v106c-19 -14 -42 -23 -59 -27c-56 -12 -78 -39 -78 -87c0 -41 15 -75 52 -75s85 24 85 83zM91 601l78 144h144l78 -144h-106l-46 85l-48 -85h-100z" />
    <glyph glyph-name="adieresis" unicode="&#xe4;" horiz-adv-x="481" 
d="M169 373h-124v13c0 124 85 166 189 166c164 0 195 -68 195 -165v-283c0 -50 3 -73 17 -104h-132c-9 17 -13 38 -17 56h-2c-32 -56 -71 -70 -137 -70c-96 0 -130 82 -130 154c0 101 41 142 136 168l78 21c41 11 55 27 55 63c0 41 -18 66 -64 66c-42 0 -64 -28 -64 -70v-15
zM297 163v106c-19 -14 -42 -23 -59 -27c-56 -12 -78 -39 -78 -87c0 -41 15 -75 52 -75s85 24 85 83zM99 610v118h112v-118h-112zM271 610v118h112v-118h-112z" />
    <glyph glyph-name="agrave" unicode="&#xe0;" horiz-adv-x="481" 
d="M169 373h-124v13c0 124 85 166 189 166c164 0 195 -68 195 -165v-283c0 -50 3 -73 17 -104h-132c-9 17 -13 38 -17 56h-2c-32 -56 -71 -70 -137 -70c-96 0 -130 82 -130 154c0 101 41 142 136 168l78 21c41 11 55 27 55 63c0 41 -18 66 -64 66c-42 0 -64 -28 -64 -70v-15
zM297 163v106c-19 -14 -42 -23 -59 -27c-56 -12 -78 -39 -78 -87c0 -41 15 -75 52 -75s85 24 85 83zM306 601h-94l-98 144h138z" />
    <glyph glyph-name="aring" unicode="&#xe5;" horiz-adv-x="481" 
d="M169 373h-124v13c0 124 85 166 189 166c164 0 195 -68 195 -165v-283c0 -50 3 -73 17 -104h-132c-9 17 -13 38 -17 56h-2c-32 -56 -71 -70 -137 -70c-96 0 -130 82 -130 154c0 101 41 142 136 168l78 21c41 11 55 27 55 63c0 41 -18 66 -64 66c-42 0 -64 -28 -64 -70v-15
zM297 163v106c-19 -14 -42 -23 -59 -27c-56 -12 -78 -39 -78 -87c0 -41 15 -75 52 -75s85 24 85 83zM127 698c0 63 51 114 114 114s114 -51 114 -114s-51 -114 -114 -114s-114 51 -114 114zM183 698c0 -32 26 -58 58 -58s58 26 58 58s-26 58 -58 58s-58 -26 -58 -58z" />
    <glyph glyph-name="atilde" unicode="&#xe3;" horiz-adv-x="481" 
d="M169 373h-124v13c0 124 85 166 189 166c164 0 195 -68 195 -165v-283c0 -50 3 -73 17 -104h-132c-9 17 -13 38 -17 56h-2c-32 -56 -71 -70 -137 -70c-96 0 -130 82 -130 154c0 101 41 142 136 168l78 21c41 11 55 27 55 63c0 41 -18 66 -64 66c-42 0 -64 -28 -64 -70v-15
zM297 163v106c-19 -14 -42 -23 -59 -27c-56 -12 -78 -39 -78 -87c0 -41 15 -75 52 -75s85 24 85 83zM154 610h-70c11 78 42 124 93 124c18 0 31 -2 43 -7l48 -21c10 -4 20 -6 30 -6c19 0 28 23 28 36h72c-7 -71 -42 -124 -93 -124c-43 0 -87 34 -119 34
c-15 0 -27 -11 -32 -36z" />
    <glyph glyph-name="ccedilla" unicode="&#xe7;" horiz-adv-x="463" 
d="M171 -92l47 78c-129 5 -192 75 -192 283c0 221 91 283 218 283s193 -81 193 -208h-132c0 52 -10 108 -62 108c-68 0 -79 -60 -79 -184c0 -133 12 -188 74 -188c46 0 67 39 67 126h132c0 -127 -48 -204 -164 -218l-31 -49c12 3 21 5 33 5c39 0 84 -27 84 -74
c0 -58 -45 -94 -126 -94c-44 0 -84 10 -100 19l19 46c14 -8 44 -15 69 -15c28 0 50 15 50 34c0 20 -17 34 -44 34c-14 0 -23 -2 -34 -6z" />
    <glyph glyph-name="eacute" unicode="&#xe9;" horiz-adv-x="463" 
d="M437 248h-273v-43c0 -63 17 -125 68 -125c46 0 65 35 73 101h124c-5 -125 -65 -195 -195 -195c-200 0 -208 154 -208 288c0 144 28 278 214 278c161 0 197 -108 197 -273v-31zM164 330h141c-3 82 -13 128 -70 128c-55 0 -71 -57 -71 -107v-21zM167 601l54 144h138
l-98 -144h-94z" />
    <glyph glyph-name="ecircumflex" unicode="&#xea;" horiz-adv-x="463" 
d="M437 248h-273v-43c0 -63 17 -125 68 -125c46 0 65 35 73 101h124c-5 -125 -65 -195 -195 -195c-200 0 -208 154 -208 288c0 144 28 278 214 278c161 0 197 -108 197 -273v-31zM164 330h141c-3 82 -13 128 -70 128c-55 0 -71 -57 -71 -107v-21zM82 601l78 144h144l78 -144
h-106l-46 85l-48 -85h-100z" />
    <glyph glyph-name="edieresis" unicode="&#xeb;" horiz-adv-x="463" 
d="M437 248h-273v-43c0 -63 17 -125 68 -125c46 0 65 35 73 101h124c-5 -125 -65 -195 -195 -195c-200 0 -208 154 -208 288c0 144 28 278 214 278c161 0 197 -108 197 -273v-31zM164 330h141c-3 82 -13 128 -70 128c-55 0 -71 -57 -71 -107v-21zM90 610v118h112v-118h-112z
M262 610v118h112v-118h-112z" />
    <glyph glyph-name="egrave" unicode="&#xe8;" horiz-adv-x="463" 
d="M437 248h-273v-43c0 -63 17 -125 68 -125c46 0 65 35 73 101h124c-5 -125 -65 -195 -195 -195c-200 0 -208 154 -208 288c0 144 28 278 214 278c161 0 197 -108 197 -273v-31zM164 330h141c-3 82 -13 128 -70 128c-55 0 -71 -57 -71 -107v-21zM297 601h-94l-98 144h138z
" />
    <glyph glyph-name="iacute" unicode="&#xed;" horiz-adv-x="240" 
d="M51 0v538h138v-538h-138zM55 601l54 144h138l-98 -144h-94z" />
    <glyph glyph-name="icircumflex" unicode="&#xee;" horiz-adv-x="240" 
d="M51 0v538h138v-538h-138zM-30 601l78 144h144l78 -144h-106l-46 85l-48 -85h-100z" />
    <glyph glyph-name="idieresis" unicode="&#xef;" horiz-adv-x="240" 
d="M51 0v538h138v-538h-138zM-22 610v118h112v-118h-112zM150 610v118h112v-118h-112z" />
    <glyph glyph-name="igrave" unicode="&#xec;" horiz-adv-x="240" 
d="M51 0v538h138v-538h-138zM185 601h-94l-98 144h138z" />
    <glyph glyph-name="ntilde" unicode="&#xf1;" horiz-adv-x="500" 
d="M46 0v538h132v-63h2c29 53 79 77 137 77c86 0 137 -47 137 -153v-399h-138v371c0 54 -18 75 -59 75c-47 0 -73 -29 -73 -89v-357h-138zM163 610h-70c11 78 42 124 93 124c18 0 31 -2 43 -7l48 -21c10 -4 20 -6 30 -6c19 0 28 23 28 36h72c-7 -71 -42 -124 -93 -124
c-43 0 -87 34 -119 34c-15 0 -27 -11 -32 -36z" />
    <glyph glyph-name="oacute" unicode="&#xf3;" 
d="M28 269c0 184 54 283 212 283c166 3 212 -96 212 -283c0 -184 -54 -283 -212 -283c-166 -3 -212 96 -212 283zM166 269c0 -110 6 -189 74 -189c56 0 74 55 74 189s-18 189 -74 189c-68 0 -74 -79 -74 -189zM175 601l54 144h138l-98 -144h-94z" />
    <glyph glyph-name="ocircumflex" unicode="&#xf4;" 
d="M28 269c0 184 54 283 212 283c166 3 212 -96 212 -283c0 -184 -54 -283 -212 -283c-166 -3 -212 96 -212 283zM166 269c0 -110 6 -189 74 -189c56 0 74 55 74 189s-18 189 -74 189c-68 0 -74 -79 -74 -189zM90 601l78 144h144l78 -144h-106l-46 85l-48 -85h-100z" />
    <glyph glyph-name="odieresis" unicode="&#xf6;" 
d="M28 269c0 184 54 283 212 283c166 3 212 -96 212 -283c0 -184 -54 -283 -212 -283c-166 -3 -212 96 -212 283zM166 269c0 -110 6 -189 74 -189c56 0 74 55 74 189s-18 189 -74 189c-68 0 -74 -79 -74 -189zM98 610v118h112v-118h-112zM270 610v118h112v-118h-112z" />
    <glyph glyph-name="ograve" unicode="&#xf2;" 
d="M28 269c0 184 54 283 212 283c166 3 212 -96 212 -283c0 -184 -54 -283 -212 -283c-166 -3 -212 96 -212 283zM166 269c0 -110 6 -189 74 -189c56 0 74 55 74 189s-18 189 -74 189c-68 0 -74 -79 -74 -189zM305 601h-94l-98 144h138z" />
    <glyph glyph-name="otilde" unicode="&#xf5;" 
d="M28 269c0 184 54 283 212 283c166 3 212 -96 212 -283c0 -184 -54 -283 -212 -283c-166 -3 -212 96 -212 283zM166 269c0 -110 6 -189 74 -189c56 0 74 55 74 189s-18 189 -74 189c-68 0 -74 -79 -74 -189zM153 610h-70c11 78 42 124 93 124c18 0 31 -2 43 -7l48 -21
c10 -4 20 -6 30 -6c19 0 28 23 28 36h72c-7 -71 -42 -124 -93 -124c-43 0 -87 34 -119 34c-15 0 -27 -11 -32 -36z" />
    <glyph glyph-name="scaron" unicode="&#x161;" horiz-adv-x="444" 
d="M23 176h124v-18c0 -47 25 -78 72 -78c42 0 70 21 70 64c0 35 -23 51 -50 61l-97 35c-76 27 -115 74 -115 150c0 89 56 162 198 162c125 0 184 -56 184 -153v-22h-124c0 54 -16 81 -61 81c-35 0 -65 -20 -65 -58c0 -26 14 -48 60 -63l83 -28c87 -29 119 -73 119 -154
c0 -113 -84 -169 -200 -169c-155 0 -198 68 -198 171v19zM150 601l-78 144h106l46 -85l48 85h100l-78 -144h-144z" />
    <glyph glyph-name="uacute" unicode="&#xfa;" horiz-adv-x="500" 
d="M322 0v63h-2c-29 -53 -79 -77 -137 -77c-86 0 -137 47 -137 153v399h138v-371c0 -54 18 -75 59 -75c47 0 73 29 73 89v357h138v-538h-132zM185 601l54 144h138l-98 -144h-94z" />
    <glyph glyph-name="ucircumflex" unicode="&#xfb;" horiz-adv-x="500" 
d="M322 0v63h-2c-29 -53 -79 -77 -137 -77c-86 0 -137 47 -137 153v399h138v-371c0 -54 18 -75 59 -75c47 0 73 29 73 89v357h138v-538h-132zM100 601l78 144h144l78 -144h-106l-46 85l-48 -85h-100z" />
    <glyph glyph-name="udieresis" unicode="&#xfc;" horiz-adv-x="500" 
d="M322 0v63h-2c-29 -53 -79 -77 -137 -77c-86 0 -137 47 -137 153v399h138v-371c0 -54 18 -75 59 -75c47 0 73 29 73 89v357h138v-538h-132zM108 610v118h112v-118h-112zM280 610v118h112v-118h-112z" />
    <glyph glyph-name="ugrave" unicode="&#xf9;" horiz-adv-x="500" 
d="M322 0v63h-2c-29 -53 -79 -77 -137 -77c-86 0 -137 47 -137 153v399h138v-371c0 -54 18 -75 59 -75c47 0 73 29 73 89v357h138v-538h-132zM315 601h-94l-98 144h138z" />
    <glyph glyph-name="yacute" unicode="&#xfd;" horiz-adv-x="444" 
d="M46 -176v103c12 -2 24 -3 36 -3c51 0 70 28 74 76l-151 538h144l80 -372h2l70 372h138l-130 -502c-48 -186 -79 -212 -207 -212h-56zM157 601l54 144h138l-98 -144h-94z" />
    <glyph glyph-name="ydieresis" unicode="&#xff;" horiz-adv-x="444" 
d="M46 -176v103c12 -2 24 -3 36 -3c51 0 70 28 74 76l-151 538h144l80 -372h2l70 372h138l-130 -502c-48 -186 -79 -212 -207 -212h-56zM80 610v118h112v-118h-112zM252 610v118h112v-118h-112z" />
    <glyph glyph-name="zcaron" unicode="&#x17e;" horiz-adv-x="426" 
d="M24 0v106l215 320h-205v112h368v-106l-215 -320h215v-112h-378zM141 601l-78 144h106l46 -85l48 85h100l-78 -144h-144z" />
    <glyph glyph-name="Euro" unicode="&#x20ac;" 
d="M442 678v-120c-18 18 -53 36 -109 36c-70 0 -109 -39 -120 -123h202l-28 -93h-184v-27v-32h165l-28 -92h-127c11 -87 52 -126 121 -126c54 0 88 16 108 35v-121c-16 -13 -60 -28 -129 -28c-122 0 -202 72 -224 240h-72l28 92h35c-1 8 -2 19 -2 32c0 9 1 18 2 27h-63
l28 93h42c21 152 93 237 226 237c63 0 111 -17 129 -30z" />
    </font>
</defs>
</svg>
